<?xml version="1.0" encoding="utf-8"?>
<!-- Generator: Adobe Illustrator 24.3.0, SVG Export Plug-In . SVG Version: 6.00 Build 0)  -->
<svg version="1.1" id="Layer_1" xmlns="http://www.w3.org/2000/svg" xmlns:xlink="http://www.w3.org/1999/xlink" x="0px" y="0px"
	 viewBox="0 0 199.05 131.98" style="enable-background:new 0 0 199.05 131.98;" xml:space="preserve">
<style type="text/css">
	.st0{fill:#FFFFFF;}
	.st1{fill:#FBB040;}
</style>
<path class="st0" d="M127.14,98.88c-3.8,4.1-7.99,7.73-12.52,10.77c-4.5,3.09-9.37,5.54-14.41,7.55c-5.07,1.93-10.32,3.38-15.7,4.34
	l-1.01,0.19l-1.01,0.15l-2.02,0.3c-0.67,0.12-1.35,0.17-2.02,0.24l-2.02,0.2l-2.02,0.13c-0.67,0.03-1.35,0.11-2.02,0.1
	c-1.34,0-2.69,0.06-4.03-0.02c-2.69-0.01-5.35-0.37-8.01-0.72l-1.98-0.35c-0.66-0.11-1.31-0.29-1.96-0.43l-0.98-0.22l-0.97-0.26
	c-0.64-0.19-1.3-0.34-1.94-0.55c-5.15-1.57-10.1-3.92-14.74-6.97c-4.62-3.05-8.97-6.75-12.71-11.17l-0.43,0.23
	c1.04,2.79,2.52,5.38,4.22,7.85c1.71,2.46,3.67,4.76,5.83,6.88c4.33,4.24,9.52,7.72,15.19,10.21c2.84,1.22,5.78,2.23,8.8,2.96
	c0.75,0.2,1.51,0.33,2.27,0.5c0.76,0.15,1.52,0.31,2.29,0.41l2.3,0.33c0.77,0.09,1.54,0.15,2.31,0.22c1.54,0.17,3.08,0.15,4.63,0.21
	c0.77,0.03,1.54-0.02,2.31-0.03c0.77-0.03,1.54-0.02,2.31-0.08l2.29-0.2c0.76-0.07,1.53-0.12,2.28-0.24l2.27-0.31l1.13-0.16
	l1.12-0.22c5.98-1.11,11.88-2.88,17.48-5.4c2.77-1.32,5.52-2.69,8.09-4.38l0.97-0.61l0.95-0.65c0.63-0.44,1.27-0.86,1.88-1.32
	l1.82-1.4c0.61-0.46,1.18-0.98,1.76-1.46c4.64-3.98,8.65-8.64,11.83-13.74c1.58-2.56,2.98-5.21,4.12-7.97
	c1.14-2.75,2.06-5.58,2.56-8.51l-0.46-0.14C134.37,90.21,130.92,94.78,127.14,98.88"/>
<path class="st1" d="M46.05,111.2l0.8-0.13l1.93-11.1l-0.83,0.14L48,99.77l4.19-0.69c2.06-0.34,3.17,0.59,2.87,2.32
	c-0.23,1.33-0.99,2.29-2.11,2.86c1.37,0.22,2.02,1.19,1.77,2.67c-0.39,2.22-2.08,3.51-4.41,3.89l-4.32,0.71L46.05,111.2z
	 M51.28,104.33c1.13-0.19,1.94-1.23,2.1-2.14l0.18-1.03c0.16-0.94-0.31-1.75-1.45-1.58l-1.5,0.25l-0.82,4.74L51.28,104.33z
	 M50.4,110.31c1.28-0.21,2.22-1.44,2.4-2.49l0.19-1.08c0.18-1.06-0.37-2.06-1.66-1.87l-1.65,0.27l-0.94,5.43L50.4,110.31z"/>
<path class="st1" d="M62.07,108.9c-0.81,0.13-1.36-0.09-1.21-0.93c-0.37,0.75-1.22,1.54-2.2,1.7c-1.99,0.33-2.56-0.9-2.28-2.52
	l0.92-5.31l-0.66,0.11l0.06-0.34l2.49-0.41l-1.07,6.17c-0.22,1.26-0.16,1.97,0.83,1.81c0.85-0.14,1.62-0.95,2.02-2.08l1.11-6.37
	l1.86-0.31l-1.4,8.07l0.66-0.11l-0.06,0.34L62.07,108.9z M58.72,98.21c0.08-0.45,0.53-0.92,0.98-0.99c0.45-0.07,0.76,0.27,0.68,0.72
	c-0.08,0.45-0.53,0.92-0.98,0.99C58.96,99,58.64,98.66,58.72,98.21 M62.13,97.65c0.08-0.45,0.53-0.92,0.98-0.99
	c0.45-0.07,0.76,0.27,0.68,0.72c-0.08,0.45-0.53,0.92-0.98,0.99C62.36,98.44,62.05,98.1,62.13,97.65"/>
<path class="st1" d="M67.9,100.41c0.3-0.34,1-1,1.91-1.15c2.16-0.36,3.09,0.82,2.81,2.43l-0.92,5.3l0.67-0.11l-0.06,0.34l-1.08,0.18
	c-0.81,0.13-1.35-0.1-1.23-0.84l0.92-5.3c0.17-0.99-0.38-1.6-1.38-1.44c-0.52,0.08-0.97,0.23-1.71,1.2l-1.18,6.81l0.67-0.11
	l-0.06,0.34l-3.17,0.52l0.06-0.34l0.65-0.11l1.34-7.74l-0.67,0.11l0.06-0.34l2.46-0.4L67.9,100.41z"/>
<path class="st1" d="M74.39,99.03l-0.66,0.11l0.06-0.34l3.31-0.54l-0.06,0.34l-0.65,0.11l1.1,5.47l3.02-6.15l-0.65,0.11l0.06-0.34
	l2.18-0.36l-0.06,0.34l-0.65,0.11l-4.18,8.53c-1.2,2.47-1.82,3.71-3.79,4.04c-2.46,0.4-2.19-1.78-0.75-2.02
	c-0.18,1.04-0.04,1.64,0.9,1.49c1.18-0.19,1.97-1.78,2.71-3.22L74.39,99.03z"/>
<path class="st1" d="M87.17,104.77c-0.81,0.13-1.38,0.03-1.25-0.71c-0.28,0.47-0.72,1.24-2.53,1.54c-1.84,0.3-2.84-0.45-2.56-2.06
	c0.22-1.3,1.57-2.79,3.23-3.06l2.53-0.42l0.16-0.93c0.21-1.23-0.08-2.14-1.31-1.94c-0.85,0.14-1.72,0.61-1.94,1.87
	c-1.45,0.24-0.66-1.95,1.8-2.35l0.45-0.07c2.18-0.36,3.07,0.92,2.78,2.7l-0.87,5.03c0,0.02,0.45-0.07,0.67-0.11l-0.06,0.34
	L87.17,104.77z M85.44,100.7c-1.37,0.19-2.5,1.28-2.72,2.55c-0.23,1.35,0.58,1.95,1.5,1.78c0.98-0.14,1.73-1.02,1.96-2.53l0.31-1.98
	L85.44,100.7z"/>
<path class="st1" d="M101.79,102.05l0.66-0.11l-0.06,0.34l-1.08,0.18c-0.81,0.13-1.35-0.1-1.23-0.84l0.92-5.3
	c0.17-0.99-0.35-1.61-1.35-1.45c-0.93,0.15-1.35,0.7-1.8,1.42l-1.14,6.59l0.66-0.11l-0.06,0.34l-2.49,0.41l1.11-6.37
	c0.17-0.99-0.37-1.61-1.36-1.44c-0.52,0.08-1,0.25-1.76,1.22l-1.18,6.79l0.7-0.12l-0.06,0.34l-3.17,0.52l0.06-0.34l0.66-0.11
	l1.34-7.74l-0.68,0.11l0.06-0.34l2.46-0.4l-0.08,0.65c0.3-0.34,1.01-1,1.93-1.15c1.65-0.27,2.22,0.5,2.29,0.95
	c0.32-0.53,1.18-1.52,2.66-1.76c2.16-0.36,3.19,0.8,2.91,2.41L101.79,102.05z"/>
<path class="st1" d="M104.8,94.02l0.06-0.34l2.46-0.4l-1.4,8.09l0.73-0.12l-0.06,0.34l-1.08,0.18c-0.81,0.13-1.35-0.1-1.23-0.84
	l1.22-7.01L104.8,94.02z M106.68,92.08c0.6-0.1,1.19-0.7,1.29-1.31c0.11-0.62-0.3-1.06-0.9-0.96c-0.61,0.1-1.2,0.7-1.31,1.33
	C105.66,91.74,106.07,92.18,106.68,92.08"/>
<path class="st1" d="M111.42,93.26c0.3-0.34,1-1,1.91-1.15c2.16-0.36,3.09,0.82,2.81,2.43l-0.92,5.3l0.67-0.11l-0.06,0.34
	l-1.08,0.18c-0.81,0.13-1.35-0.1-1.23-0.84l0.92-5.3c0.17-0.99-0.38-1.6-1.38-1.44c-0.52,0.08-0.98,0.23-1.71,1.2l-1.18,6.81
	l0.66-0.11l-0.06,0.34l-3.17,0.52l0.06-0.34l0.65-0.11l1.34-7.74l-0.67,0.11l0.06-0.34l2.46-0.4L111.42,93.26z"/>
<path class="st1" d="M68.84,24.46c5.78,11.21,1.9,20.15-6.89,25.76c2.95-4.43,0.69-10.05,0.34-14.8c0.48,7.07-9.1,10.95-8.48,17.17
	c-10.05-9.39-1.78-21.36-2.8-26.78c0.82,5.49-20.14,12.98-5.86,26.22c-26.26-8.02-3.09-31.49-11.51-38.23
	c5.61,1.61,10.31,10.62,7.19,13.77c7.38-7.56-5.02-18.4,8.49-27.58c-2.25,10.25,16.83,21.41,11.71,29.95
	c5.58-9.1-8.93-14.86-3.54-22.22C56.27,13.77,65.97,18.88,68.84,24.46z"/>
<g>
	<path class="st0" d="M30.86,35.72c-0.84,1.26-1.63,2.54-2.38,3.85c-1.59,2.77-3,5.63-4.17,8.57c-1.18,2.94-2.16,5.95-2.77,9.05
		l0.46,0.15c0.73-1.36,1.49-2.71,2.32-4.01c0.81-1.31,1.65-2.59,2.51-3.85c1.36-1.98,2.79-3.91,4.28-5.77
		C30.46,41.12,30.5,38.4,30.86,35.72z"/>
	<path class="st0" d="M135.37,29.37c-0.85-1.35-1.79-2.66-2.77-3.93c-1-1.26-2.05-2.49-3.16-3.67c-4.44-4.72-9.86-8.66-15.88-11.45
		c-3-1.41-6.15-2.52-9.36-3.36c-1.6-0.43-3.24-0.75-4.87-1.04c-1.64-0.28-3.28-0.49-4.93-0.64c-1.65-0.12-3.3-0.22-4.95-0.23
		c-0.83-0.02-1.65,0-2.47,0.01c-0.82,0.03-1.64,0.07-2.46,0.12C81.24,5.39,78,5.78,74.77,6.43c-3.22,0.63-6.42,1.45-9.53,2.55
		c-1.56,0.53-3.09,1.14-4.62,1.76c0,0-0.01,0-0.01,0.01c0.95,2.37,3.38,4.77,5.75,7.12c0.08,0.08,0.16,0.15,0.23,0.23
		c3.23-1.08,6.54-1.95,9.91-2.57c2.85-0.51,5.75-0.93,8.65-1.15c2.89-0.2,5.78-0.3,8.66-0.17c5.75,0.23,11.43,1.25,16.89,3.11
		c5.45,1.87,10.65,4.63,15.45,8.14c4.78,3.52,9.21,7.75,12.96,12.68l0.43-0.21C138.55,34.91,137.08,32.07,135.37,29.37z"/>
</g>
<g>
	<path class="st1" d="M73.57,47.1l0.02-0.15l0.29-0.04l0.68-5.54l-0.29,0.04l0.02-0.15l1.07-0.16l-0.29,2.4c0,0,0.31-0.34,0.78-0.41
		c0.84-0.12,1.43,0.47,1.33,1.34l-0.08,0.69c-0.12,0.96-0.83,1.66-1.68,1.79c-0.3,0.04-0.62-0.07-0.73-0.26l-0.03,0.28L73.57,47.1z
		 M74.72,46.4c0.2,0.31,0.5,0.36,0.71,0.33c0.41-0.06,0.75-0.41,0.79-0.86l0.23-1.9c0.05-0.43-0.22-0.71-0.65-0.63
		c-0.22,0.04-0.54,0.14-0.78,0.48L74.72,46.4z"/>
	<path class="st1" d="M78.21,45.58c-0.05,0.42,0.34,0.68,0.75,0.62c0.6-0.08,0.9-0.39,0.96-0.89c0.56-0.08,0.23,0.91-0.91,1.08
		c-1.11,0.16-1.61-0.46-1.5-1.32l0.08-0.69c0.11-0.87,0.86-1.67,1.71-1.79c0.92-0.14,1.48,0.25,1.31,1.64l-2.28,0.34L78.21,45.58z
		 M79.92,43.45c0.05-0.42-0.25-0.69-0.65-0.63c-0.41,0.06-0.77,0.44-0.82,0.85l-0.08,0.69l1.47-0.22L79.92,43.45z"/>
	<path class="st1" d="M82.13,45.7l-0.02,0.15l-1.37,0.2l0.02-0.15l0.28-0.04l0.41-3.35l-0.29,0.04l0.02-0.15l1.07-0.16l-0.05,0.39
		c0.09-0.21,0.34-0.52,0.8-0.58c1.06-0.16,0.98,0.79,0.36,0.89c0.07-0.55-0.16-0.69-0.48-0.64c-0.31,0.05-0.5,0.27-0.73,0.79
		l-0.32,2.66L82.13,45.7z"/>
	<path class="st1" d="M84.08,42.11l0.02-0.15l1.06-0.16l-0.43,3.5l0.31-0.05l-0.02,0.15l-0.46,0.07c-0.35,0.05-0.59-0.06-0.55-0.38
		l0.37-3.04L84.08,42.11z M84.85,41.28c0.26-0.04,0.5-0.3,0.53-0.56c0.03-0.27-0.15-0.46-0.41-0.43c-0.26,0.04-0.51,0.3-0.54,0.57
		C84.4,41.12,84.59,41.32,84.85,41.28z"/>
	<path class="st1" d="M90.59,44.45l-0.02,0.15l-0.47,0.07c-0.35,0.05-0.59-0.06-0.55-0.38c-0.22,0.39-0.48,0.62-0.93,0.69
		c-0.73,0.11-1.32-0.5-1.21-1.36l0.08-0.69c0.11-0.87,0.86-1.67,1.71-1.79c0.47-0.07,0.72,0.12,0.73,0.11l0.27-2.18l-0.29,0.04
		l0.02-0.15L91,38.81l-0.69,5.68L90.59,44.45z M88.12,44.11c-0.05,0.4,0.19,0.72,0.6,0.66c0.31-0.05,0.56-0.24,0.87-0.77l0.3-2.45
		c-0.24-0.19-0.48-0.21-0.7-0.19c-0.43,0.06-0.78,0.42-0.84,0.85L88.12,44.11z"/>
	<path class="st1" d="M93.74,44.12c-0.35,0.05-0.6,0-0.56-0.32c-0.11,0.2-0.28,0.54-1.06,0.65c-0.79,0.12-1.24-0.22-1.16-0.92
		c0.07-0.56,0.62-1.2,1.33-1.31l1.09-0.16l0.05-0.4c0.06-0.53-0.08-0.93-0.61-0.85c-0.37,0.05-0.73,0.25-0.8,0.8
		c-0.62,0.09-0.33-0.85,0.73-1.01l0.19-0.03c0.94-0.14,1.35,0.42,1.27,1.19l-0.27,2.18c0,0.01,0.19-0.03,0.29-0.04l-0.02,0.15
		L93.74,44.12z M92.89,42.34c-0.59,0.07-1.06,0.54-1.12,1.09c-0.07,0.58,0.3,0.85,0.69,0.78c0.42-0.06,0.73-0.43,0.79-1.08
		l0.09-0.86L92.89,42.34z"/>
	<path class="st1" d="M100.02,43.05l0.29-0.04l-0.02,0.15l-0.47,0.07c-0.35,0.05-0.59-0.06-0.55-0.38l0.28-2.29
		c0.05-0.43-0.19-0.7-0.62-0.64c-0.4,0.06-0.57,0.29-0.75,0.6l-0.35,2.86l0.29-0.04l-0.02,0.15l-1.07,0.16l0.34-2.76
		c0.05-0.43-0.2-0.7-0.62-0.64c-0.22,0.03-0.43,0.1-0.74,0.52l-0.36,2.94l0.3-0.04l-0.02,0.15L94.56,44l0.02-0.15l0.29-0.04
		l0.41-3.35l-0.29,0.04L95,40.36l1.06-0.16l-0.02,0.28c0.12-0.15,0.42-0.43,0.81-0.48c0.71-0.1,0.98,0.23,1.01,0.43
		c0.13-0.23,0.48-0.65,1.12-0.75c0.93-0.14,1.4,0.37,1.32,1.07L100.02,43.05z"/>
	<path class="st1" d="M103.52,42.68c-0.35,0.05-0.6,0-0.56-0.32c-0.11,0.2-0.28,0.54-1.06,0.65c-0.79,0.12-1.25-0.22-1.16-0.92
		c0.07-0.56,0.62-1.2,1.33-1.31l1.09-0.16l0.05-0.4c0.06-0.53-0.08-0.93-0.61-0.85c-0.37,0.05-0.73,0.25-0.8,0.8
		c-0.62,0.09-0.33-0.85,0.73-1.01l0.19-0.03c0.94-0.14,1.35,0.42,1.27,1.19l-0.27,2.18c0,0.01,0.19-0.03,0.29-0.04l-0.02,0.15
		L103.52,42.68z M102.68,40.89c-0.59,0.07-1.06,0.54-1.12,1.09c-0.07,0.58,0.3,0.85,0.69,0.79c0.42-0.06,0.73-0.43,0.79-1.08
		l0.09-0.86L102.68,40.89z"/>
	<path class="st1" d="M107.64,42.07l-0.46,0.07c-0.35,0.05-0.59-0.06-0.55-0.38l0.09-0.76c0.05-0.43-0.06-0.72-0.49-0.66
		c-0.22,0.03-0.45,0.14-0.66,0.5l-0.16,1.42l0.29-0.04l-0.02,0.15l-1.37,0.2l0.02-0.15l0.28-0.04l0.68-5.54L105,36.88l0.02-0.15
		l1.07-0.16l-0.46,3.79l1.39-1.64l-0.28,0.04l0.02-0.15l0.92-0.14l-0.02,0.15l-0.29,0.04l-1.26,1.49c0.07-0.03,0.14-0.05,0.22-0.06
		c0.93-0.14,1.21,0.4,1.13,1.1l-0.09,0.76l0.29-0.04L107.64,42.07z"/>
	<path class="st1" d="M111.86,38.08l-0.66,0.1l-0.4,3.29l0.39-0.06l-0.02,0.15l-0.56,0.08c-0.35,0.05-0.59-0.06-0.55-0.38l0.36-2.96
		l-0.41,0.06l0.03-0.21c0.54-0.08,0.94-0.56,1-1.08l0.29-0.04l-0.12,0.95l0.67-0.1L111.86,38.08z"/>
	<path class="st1" d="M114.54,41.05c-0.35,0.05-0.6,0-0.56-0.32c-0.11,0.2-0.28,0.54-1.06,0.65c-0.79,0.12-1.24-0.22-1.16-0.92
		c0.07-0.56,0.62-1.2,1.33-1.31l1.09-0.16l0.05-0.4c0.06-0.53-0.08-0.93-0.61-0.85c-0.37,0.05-0.73,0.25-0.8,0.8
		c-0.62,0.09-0.33-0.85,0.73-1.01l0.19-0.03c0.94-0.14,1.35,0.42,1.27,1.19l-0.27,2.18c0,0.01,0.19-0.03,0.29-0.04L115,40.98
		L114.54,41.05z M113.7,39.26c-0.59,0.07-1.06,0.54-1.12,1.09c-0.07,0.58,0.3,0.85,0.69,0.78c0.42-0.06,0.73-0.43,0.79-1.08
		l0.09-0.86L113.7,39.26z"/>
	<path class="st1" d="M118.71,40.29l-0.02,0.15l-0.46,0.07c-0.35,0.05-0.59-0.06-0.55-0.38c-0.22,0.39-0.48,0.62-0.93,0.69
		c-0.73,0.11-1.32-0.5-1.21-1.36l0.08-0.69c0.11-0.87,0.86-1.67,1.71-1.79c0.47-0.07,0.72,0.12,0.73,0.11l0.27-2.18l-0.29,0.04
		l0.02-0.15l1.06-0.16l-0.69,5.68L118.71,40.29z M116.24,39.95c-0.05,0.4,0.19,0.72,0.6,0.66c0.31-0.05,0.56-0.24,0.87-0.77
		l0.3-2.45c-0.24-0.19-0.48-0.21-0.7-0.19c-0.43,0.06-0.78,0.42-0.83,0.85L116.24,39.95z"/>
	<path class="st1" d="M119.4,36.89l0.02-0.15l1.06-0.16l-0.43,3.5l0.32-0.05l-0.02,0.15l-0.46,0.07c-0.35,0.05-0.59-0.06-0.55-0.38
		l0.37-3.04L119.4,36.89z"/>
	<path class="st1" d="M122.15,36.63c0.12-0.15,0.41-0.42,0.8-0.48c0.93-0.14,1.36,0.38,1.27,1.08l-0.28,2.3l0.29-0.04l-0.02,0.15
		l-0.47,0.07c-0.35,0.05-0.59-0.06-0.55-0.38l0.28-2.29c0.05-0.43-0.2-0.7-0.63-0.64c-0.22,0.03-0.42,0.09-0.72,0.51l-0.36,2.95
		l0.29-0.04l-0.02,0.15l-1.37,0.2L120.7,40l0.28-0.04l0.41-3.35l-0.29,0.04l0.02-0.15l1.06-0.16L122.15,36.63z"/>
	<path class="st1" d="M125,36.06l0.02-0.15l1.06-0.16l-0.43,3.5l0.32-0.05l-0.02,0.15l-0.46,0.07c-0.35,0.05-0.59-0.06-0.55-0.38
		l0.37-3.04L125,36.06z"/>
	<path class="st1" d="M128.65,38.77c0.23-0.03,0.37-0.19,0.4-0.42l0.14-0.02l-0.07,0.57l-2.96,0.44l0.02-0.15l2.25-3.57l-1.19,0.18
		c-0.23,0.03-0.38,0.19-0.4,0.42l-0.14,0.02l0.07-0.57l2.59-0.38l-0.02,0.15L127.09,39L128.65,38.77z"/>
</g>
<path class="st1" d="M87.72,36.46c-0.12,0.97-0.57,1.38-1.52,1.52l-3.42,0.51l0.15-1.25l0.03-0.17l0.02-0.08
	c0.27-1.17,1.09-2.43,2.49-2.88c1.12-0.36,1.23-1.88,1.31-2.54c0.08-0.68,0.03-1.31-0.9-1.17c-0.92,0.14-1.22,0.8-1.34,1.83
	c-1.16,0.17-0.68-1.88,1.4-2.18c1.46-0.22,2.35,0.18,2.2,1.46c-0.13,1.05-0.94,2.46-2.09,2.86c-1.2,0.42-1.59,1.86-1.66,2.57
	l-0.11,0.88l1.85-0.27c0.83-0.12,1.28-0.49,1.38-1.31l0.02-0.18l0.24-0.04L87.72,36.46z"/>
<path class="st1" d="M94.29,31.32c0.16-1.35,1.45-2.73,2.59-2.9c1.17-0.17,2.13,0.88,1.97,2.23l-0.38,3.12
	c-0.17,1.39-1.44,2.73-2.59,2.9c-1.16,0.17-2.14-0.84-1.97-2.23L94.29,31.32z M95.18,35.32c-0.08,0.62,0.17,1.14,0.73,1.06
	c0.56-0.08,0.96-0.7,1.03-1.32l0.65-5.28c0.08-0.64-0.17-1.14-0.74-1.05c-0.55,0.08-0.95,0.68-1.02,1.31L95.18,35.32z"/>
<path class="st1" d="M89.18,32.08c0.16-1.35,1.45-2.73,2.59-2.9c1.17-0.17,2.13,0.88,1.97,2.23l-0.38,3.12
	c-0.17,1.39-1.44,2.73-2.59,2.9c-1.16,0.17-2.14-0.84-1.97-2.23L89.18,32.08z M90.07,36.07c-0.08,0.62,0.17,1.14,0.73,1.06
	c0.56-0.08,0.96-0.7,1.03-1.32l0.65-5.28c0.08-0.64-0.17-1.14-0.74-1.05c-0.55,0.08-0.94,0.68-1.02,1.31L90.07,36.07z"/>
<path class="st1" d="M99.49,32.32c0.23-1.85,1.22-4.47,3.21-4.76c2.09-0.31,2.02,1.37,1.13,1.5c0.11-0.93-0.24-1.39-1.01-1.28
	c-1.43,0.21-1.51,2.08-1.59,2.74l-0.13,1.04c0.12-0.21,0.76-0.55,1.13-0.6c1.72-0.25,2.3,0.71,2.16,1.86l-0.03,0.24
	c-0.14,1.15-1.11,2.64-2.73,2.81c-1.76,0.18-2.44-1.15-2.22-2.88L99.49,32.32z M100.76,34.68c-0.08,0.65,0.33,0.99,0.91,0.9
	c0.59-0.09,1.06-0.56,1.14-1.21l0.26-2.09c0.08-0.69-0.23-1.11-0.87-1.01c-0.64,0.09-1.1,0.63-1.18,1.31L100.76,34.68z"/>
<path class="st1" d="M107.11,27.28c0.01-0.09,0.05-0.18,0.12-0.27c0.07-0.09,0.2-0.15,0.4-0.18c0.13-0.02,0.24,0.01,0.34,0.08
	c0.09,0.07,0.14,0.2,0.16,0.4c0.01,0.31,0,0.57-0.04,0.8c-0.04,0.23-0.14,0.47-0.31,0.73c-0.15,0.23-0.31,0.43-0.47,0.58
	c-0.16,0.15-0.32,0.24-0.46,0.26c-0.12,0.02-0.18-0.02-0.18-0.12c0-0.1,0.05-0.2,0.17-0.3c0.14-0.13,0.28-0.25,0.43-0.37
	c0.15-0.12,0.27-0.27,0.36-0.46c0.08-0.16,0.1-0.32,0.06-0.48c-0.04-0.16-0.11-0.27-0.23-0.33c-0.12-0.06-0.2-0.11-0.26-0.15
	C107.12,27.43,107.1,27.36,107.11,27.28z"/>
<path class="st1" d="M111.97,33.87l-0.02,0.18l-0.57,0.08c-0.43,0.06-0.73-0.07-0.68-0.46c-0.27,0.48-0.59,0.76-1.14,0.85
	c-0.9,0.13-1.62-0.61-1.49-1.67l0.1-0.85c0.13-1.07,1.06-2.05,2.1-2.2c0.58-0.09,0.88,0.14,0.9,0.14l0.33-2.68l-0.35,0.05l0.02-0.18
	l1.3-0.19l-0.85,6.99L111.97,33.87z M108.94,33.45c-0.06,0.49,0.24,0.88,0.74,0.81c0.38-0.06,0.68-0.29,1.07-0.95l0.37-3.01
	c-0.29-0.24-0.59-0.26-0.86-0.23c-0.53,0.07-0.95,0.52-1.03,1.05L108.94,33.45z"/>
<path class="st1" d="M115.84,33.47c-0.43,0.06-0.73,0-0.69-0.39c-0.13,0.25-0.35,0.66-1.31,0.8c-0.98,0.14-1.53-0.27-1.43-1.13
	c0.08-0.69,0.76-1.48,1.64-1.61l1.34-0.2l0.06-0.49c0.08-0.65-0.1-1.15-0.75-1.05c-0.45,0.07-0.9,0.31-0.98,0.98
	c-0.77,0.11-0.41-1.05,0.89-1.24l0.24-0.04c1.15-0.17,1.66,0.52,1.56,1.47l-0.33,2.68c0,0.01,0.24-0.04,0.35-0.05l-0.02,0.18
	L115.84,33.47z M114.81,31.28c-0.73,0.09-1.3,0.66-1.38,1.34c-0.09,0.72,0.36,1.05,0.85,0.97c0.52-0.07,0.89-0.53,0.97-1.33
	l0.11-1.05L114.81,31.28z"/>
<path class="st1" d="M118.68,29c0.15-0.18,0.5-0.52,0.99-0.59c1.14-0.17,1.67,0.47,1.57,1.33l-0.34,2.82l0.35-0.05l-0.02,0.18
	l-0.57,0.08c-0.43,0.06-0.73-0.07-0.68-0.46l0.34-2.82c0.06-0.53-0.25-0.86-0.78-0.78c-0.27,0.04-0.51,0.11-0.88,0.62l-0.44,3.63
	l0.35-0.05l-0.02,0.18l-1.68,0.25l0.02-0.18l0.34-0.05l0.5-4.12l-0.35,0.05l0.02-0.18l1.3-0.19L118.68,29z"/>
<g>
	<path class="st1" d="M198.88,75.69l-4.44-11.16c-0.48-1.39-1.85-2.24-3.27-2.01L167.08,67c-1.36,0.22-2.52,0.94-3.34,1.96l0,0
		l-0.01,0.01c-0.23,0.29-0.44,0.6-0.61,0.94l-3.8,5.81c-0.04,0-0.08,0-0.12,0.01L16.22,97.28c-0.5,1.28-1.4,2.69-3.03,3.6
		l146.19-22.05l5.01,4.08c0.38,0.43,0.83,0.79,1.32,1.08l0.03,0.02l0-0.01c1.02,0.58,2.22,0.84,3.47,0.64l27.31-4.9
		C198.36,79.45,199.5,77.51,198.88,75.69z"/>
	<path class="st1" d="M4.55,99.04l-2.11,0.32c-0.82,0.12-1.4,0.91-1.28,1.76c0.11,0.76,0.73,1.31,1.45,1.33c0.09,0,0.17,0,0.26-0.02
		l4.72-0.71C5.55,101.35,4.79,100.14,4.55,99.04z"/>
</g>
<path class="st0" d="M23.78,67.4c-0.08,0.68-0.33,1.3-0.76,1.86c-0.42,0.56-0.89,1.03-1.4,1.39c-0.72-0.39-1.51-0.72-2.38-0.97
	c-0.87-0.26-1.93-0.3-3.18-0.12c-2.39,0.33-4.35,1.34-5.88,3.01c-1.53,1.67-2.46,3.88-2.79,6.61C7.05,82,7.5,84.02,8.75,85.25
	c1.25,1.23,3.11,1.67,5.6,1.32c1.29-0.18,2.41-0.5,3.36-0.97c0.95-0.46,1.85-0.99,2.68-1.57c0.41,0.29,0.72,0.69,0.94,1.19
	c0.22,0.51,0.29,1.1,0.2,1.77c-0.07,0.59-0.3,1.16-0.67,1.72c-0.38,0.56-0.98,1.07-1.8,1.53c-0.41,0.26-0.92,0.51-1.5,0.75
	c-0.59,0.24-1.28,0.47-2.07,0.7c0.24,0.46,0.39,0.94,0.44,1.43c0.06,0.5,0.05,1.04-0.02,1.63c-0.18,1.5-0.8,2.79-1.86,3.88
	c-1.06,1.09-2.41,1.74-4.06,1.97c-1.17,0.16-2.07,0.02-2.71-0.43c-0.64-0.45-0.89-1.17-0.77-2.17c0.05-0.41,0.18-0.85,0.38-1.31
	l0.49-0.07c0.96-0.13,1.67-0.45,2.14-0.95c0.47-0.5,0.75-1.09,0.83-1.76c0.05-0.44-0.01-0.92-0.18-1.45
	c-1.65,0.03-3.15-0.19-4.51-0.65c-1.36-0.46-2.49-1.19-3.4-2.19s-1.55-2.28-1.94-3.85c-0.38-1.56-0.44-3.44-0.18-5.61
	C0.44,77.89,1.05,75.8,2,73.94c0.95-1.87,2.12-3.48,3.52-4.85c1.4-1.37,2.98-2.47,4.73-3.33c1.75-0.85,3.58-1.41,5.5-1.67
	c2.72-0.38,4.78-0.25,6.17,0.4C23.32,65.13,23.94,66.1,23.78,67.4z"/>
<path class="st0" d="M35.53,66.89c1.56-0.22,2.95-0.26,4.19-0.13c1.23,0.13,2.26,0.46,3.08,0.98c0.82,0.52,1.42,1.25,1.79,2.18
	c0.37,0.93,0.48,2.07,0.31,3.43l-1.21,9.97c-0.09,0.77-0.37,1.4-0.83,1.91c-0.46,0.51-0.99,0.97-1.6,1.37
	c-1,0.69-2.18,1.27-3.57,1.75c-1.38,0.48-2.93,0.84-4.63,1.08c-3.08,0.43-5.47,0.19-7.15-0.72c-1.68-0.91-2.38-2.55-2.09-4.93
	c0.25-2.03,1.05-3.66,2.4-4.89c1.36-1.23,3.32-2.15,5.9-2.77l6.05-1.45l0.06-0.49c0.11-0.94-0.19-1.58-0.92-1.91
	c-0.72-0.33-1.82-0.4-3.29-0.19c-1.14,0.16-2.27,0.45-3.39,0.86c-1.12,0.42-2.14,0.86-3.05,1.33c-0.33-0.18-0.59-0.5-0.79-0.95
	c-0.19-0.45-0.26-0.95-0.19-1.51c0.16-1.29,0.96-2.32,2.4-3.07c0.91-0.44,1.95-0.83,3.12-1.15C33.29,67.28,34.43,67.04,35.53,66.89z
	 M33.66,84.45c0.66-0.09,1.32-0.25,1.98-0.47c0.66-0.22,1.17-0.46,1.52-0.71l0.49-4.06l-3.72,0.82c-0.97,0.22-1.77,0.54-2.39,0.96
	c-0.62,0.42-0.98,0.97-1.06,1.64c-0.09,0.71,0.12,1.23,0.6,1.56C31.58,84.54,32.44,84.62,33.66,84.45z"/>
<path class="st0" d="M51.29,86.51c-1.35,0.19-2.29,0.11-2.82-0.24c-0.53-0.35-0.72-1.13-0.57-2.37l3.15-25.89
	c0.31-0.13,0.75-0.28,1.31-0.44c0.56-0.17,1.18-0.29,1.83-0.38c1.32-0.18,2.25-0.1,2.79,0.26c0.54,0.36,0.74,1.15,0.59,2.39
	l-3.15,25.89c-0.34,0.13-0.78,0.27-1.33,0.42C52.55,86.29,51.94,86.41,51.29,86.51z"/>
<path class="st0" d="M64.59,84.55c-0.55,0.15-1.15,0.27-1.81,0.36c-1.35,0.19-2.28,0.1-2.81-0.26c-0.53-0.36-0.72-1.14-0.58-2.35
	l2.23-18.35c0.31-0.1,0.74-0.23,1.28-0.4c0.55-0.16,1.15-0.29,1.81-0.38c1.35-0.19,2.28-0.1,2.81,0.26
	c0.53,0.36,0.72,1.16,0.57,2.39l-2.22,18.3C65.56,84.26,65.13,84.4,64.59,84.55z"/>
<path class="st0" d="M87.02,72.82l-1.03,8.51c-0.34,0.13-0.81,0.28-1.42,0.44c-0.61,0.16-1.24,0.28-1.9,0.37
	c-1.41,0.2-2.36,0.1-2.85-0.3c-0.5-0.39-0.67-1.21-0.52-2.44l2.6-21.39c0.07-0.59,0.28-1.07,0.64-1.43
	c0.35-0.37,0.84-0.68,1.46-0.94c0.5-0.24,1.06-0.47,1.69-0.67c0.63-0.2,1.27-0.39,1.92-0.57c0.65-0.18,1.3-0.33,1.95-0.45
	c0.65-0.12,1.25-0.22,1.82-0.3c4.07-0.57,7.05-0.15,8.94,1.25c1.89,1.4,2.66,3.57,2.3,6.51c-0.17,1.41-0.59,2.74-1.25,3.97
	c-0.67,1.23-1.54,2.33-2.63,3.29c-1.09,0.96-2.37,1.76-3.84,2.4c-1.48,0.64-3.11,1.08-4.91,1.33L87.02,72.82z M90.19,67.04
	c1.47-0.2,2.67-0.7,3.62-1.48c0.95-0.78,1.5-1.84,1.66-3.16c0.32-2.62-1.11-3.7-4.28-3.26c-0.54,0.08-1.01,0.16-1.42,0.24
	c-0.41,0.09-0.81,0.19-1.21,0.3l-0.94,7.72L90.19,67.04z"/>
<path class="st0" d="M109.95,78c-0.31,0.13-0.74,0.27-1.29,0.42c-0.55,0.15-1.15,0.27-1.81,0.36c-1.35,0.19-2.29,0.11-2.82-0.24
	c-0.53-0.34-0.72-1.13-0.57-2.37l2.2-18.13c0.31-0.13,0.74-0.28,1.29-0.44c0.55-0.16,1.15-0.29,1.81-0.38
	c1.35-0.19,2.28-0.1,2.81,0.26c0.53,0.36,0.72,1.16,0.57,2.39L109.95,78z M106.04,51.74c0.12-1,0.58-1.9,1.37-2.7
	c0.79-0.8,1.75-1.28,2.89-1.44c1.14-0.16,2.02,0.07,2.63,0.67c0.62,0.61,0.87,1.41,0.74,2.41c-0.13,1.03-0.58,1.95-1.37,2.75
	c-0.79,0.8-1.75,1.28-2.89,1.44c-1.14,0.16-2.01-0.07-2.63-0.68C106.16,53.59,105.91,52.77,106.04,51.74z"/>
<path class="st0" d="M127.28,54.12c0.69-0.1,1.33-0.14,1.93-0.12c0.6,0.02,1.14,0.08,1.63,0.18l0.9-7.41
	c0.34-0.13,0.78-0.28,1.33-0.45c0.55-0.16,1.15-0.29,1.81-0.38c1.35-0.19,2.28-0.1,2.81,0.26c0.53,0.36,0.72,1.16,0.57,2.39
	l-2.61,21.48c-0.09,0.71-0.31,1.32-0.67,1.85c-0.36,0.53-0.89,1.04-1.6,1.54c-0.9,0.62-2.03,1.22-3.4,1.82
	c-1.37,0.59-2.9,1.01-4.61,1.25c-3.77,0.52-6.63,0-8.57-1.56c-1.94-1.56-2.69-4.21-2.23-7.95c0.24-1.94,0.73-3.66,1.49-5.15
	c0.75-1.49,1.7-2.78,2.83-3.86c1.13-1.08,2.41-1.95,3.85-2.59C124.19,54.78,125.7,54.34,127.28,54.12z M130.24,59.56
	c-0.37-0.12-0.78-0.22-1.22-0.29c-0.45-0.07-0.93-0.07-1.43,0c-1.62,0.22-2.96,0.89-4.04,1.99c-1.08,1.1-1.74,2.71-2,4.83
	c-0.25,2.03,0.03,3.44,0.83,4.24c0.8,0.8,2.01,1.09,3.62,0.86c0.63-0.09,1.2-0.23,1.71-0.43c0.51-0.2,0.93-0.41,1.25-0.63
	L130.24,59.56z"/>
<path class="st0" d="M146.17,65.32c0.27,1.18,0.9,1.95,1.88,2.32c0.98,0.37,2.16,0.46,3.54,0.27c1.26-0.18,2.46-0.51,3.61-1
	c1.15-0.49,2.09-0.99,2.83-1.5c0.41,0.23,0.74,0.56,0.98,0.99c0.24,0.43,0.33,0.92,0.26,1.48c-0.08,0.68-0.36,1.29-0.84,1.85
	c-0.48,0.56-1.11,1.06-1.88,1.5c-0.77,0.44-1.67,0.81-2.7,1.11c-1.02,0.3-2.13,0.54-3.33,0.7c-1.77,0.25-3.37,0.23-4.8-0.05
	c-1.44-0.28-2.64-0.82-3.6-1.62c-0.96-0.8-1.66-1.89-2.1-3.24c-0.44-1.35-0.54-3-0.3-4.94c0.23-1.88,0.73-3.56,1.52-5.02
	c0.78-1.47,1.74-2.73,2.89-3.78c1.14-1.05,2.41-1.89,3.79-2.5c1.38-0.61,2.78-1.02,4.18-1.21c1.53-0.21,2.9-0.18,4.11,0.1
	c1.22,0.28,2.23,0.77,3.04,1.46c0.81,0.7,1.4,1.58,1.77,2.66c0.37,1.08,0.47,2.29,0.31,3.64c-0.11,0.94-0.45,1.68-1.02,2.22
	c-0.57,0.54-1.32,0.95-2.27,1.23L146.17,65.32z M151.54,55.64c-1.29,0.18-2.4,0.72-3.35,1.61c-0.95,0.9-1.59,2.09-1.91,3.58
	l8.74-2.56c0.03-0.76-0.22-1.43-0.77-2.02C153.7,55.67,152.8,55.47,151.54,55.64z"/>
</svg>
